# xmcd
#
# Track frame offsets: 
#        150
#        16559
#        32012
#        51502
#        70618
#        90257
#        104706
#        120367
#        141570
#        158126
#
# Disc length: 2294 seconds
#
# Revision: 0
# Processed by: cddbd v1.5.2PL0 Copyright (c) Steve Scherf et al.
# Submitted via: ExactAudioCopy v1.0b3
#
DISCID=7b08f40a
DTITLE=Loretta Lynne James - Don't Start With Me
DYEAR=2010
DGENRE=R&B
TTITLE0=Movin' Out
TTITLE1=Don't Start With Me
TTITLE2=Love Me Strong
TTITLE3=You Used To
TTITLE4=I Told You
TTITLE5=One Whole Man
TTITLE6=I'd Rather Go Blind
TTITLE7=The Bules Won't Break My Heart
TTITLE8=Touch Me In The Morning
TTITLE9=Don't Come Cryin' To Me
EXTD=
EXTT0=
EXTT1=
EXTT2=
EXTT3=
EXTT4=
EXTT5=
EXTT6=
EXTT7=
EXTT8=
EXTT9=
PLAYORDER=
